<?xml version="1.0" encoding="UTF-8" standalone="no"?>
<!DOCTYPE svg PUBLIC "-//W3C//DTD SVG 1.1//EN"
 "http://www.w3.org/Graphics/SVG/1.1/DTD/svg11.dtd">
<!-- Generated by graphviz version 2.40.1 (20161225.0304)
 -->
<!-- Title: dependencies Pages: 1 -->
<svg width="2100pt" height="284pt"
 viewBox="0.00 0.00 2100.00 284.00" xmlns="http://www.w3.org/2000/svg" xmlns:xlink="http://www.w3.org/1999/xlink">
<g id="graph0" class="graph" transform="scale(1 1) rotate(0) translate(4 280)">
<title>dependencies</title>
<polygon fill="#ffffff" stroke="transparent" points="-4,4 -4,-280 2096,-280 2096,4 -4,4"/>
<text text-anchor="start" x="1025.0091" y="-42.4" font-family="sans-serif" font-weight="bold" font-size="14.00" fill="#000000">Legend</text>
<polygon fill="#ffffb3" stroke="transparent" points="812,-10 812,-30 832,-30 832,-10 812,-10"/>
<text text-anchor="start" x="835.629" y="-15.4" font-family="sans-serif" font-size="14.00" fill="#000000"> &#160;Declarations</text>
<polygon fill="#8dd3c7" stroke="transparent" points="925,-10 925,-30 945,-30 945,-10 925,-10"/>
<text text-anchor="start" x="948.7251" y="-15.4" font-family="sans-serif" font-size="14.00" fill="#000000"> &#160;Module</text>
<polygon fill="#80b1d3" stroke="transparent" points="1011,-10 1011,-30 1031,-30 1031,-10 1011,-10"/>
<text text-anchor="start" x="1034.7812" y="-15.4" font-family="sans-serif" font-size="14.00" fill="#000000"> &#160;Bootstrap</text>
<polygon fill="#fdb462" stroke="transparent" points="1108,-10 1108,-30 1128,-30 1128,-10 1108,-10"/>
<text text-anchor="start" x="1131.6732" y="-15.4" font-family="sans-serif" font-size="14.00" fill="#000000"> &#160;Providers</text>
<polygon fill="#fb8072" stroke="transparent" points="1204,-10 1204,-30 1224,-30 1224,-10 1204,-10"/>
<text text-anchor="start" x="1227.7258" y="-15.4" font-family="sans-serif" font-size="14.00" fill="#000000"> &#160;Exports</text>
<g id="clust1" class="cluster">
<title>cluster_InfoPersonaModule</title>
<polygon fill="none" stroke="#000000" stroke-dasharray="1,5" points="8,-70 8,-268 2084,-268 2084,-70 8,-70"/>
</g>
<g id="clust2" class="cluster">
<title>cluster_InfoPersonaModule_declarations</title>
<polygon fill="none" stroke="#000000" points="1121,-78 1121,-130 2076,-130 2076,-78 1121,-78"/>
</g>
<g id="clust7" class="cluster">
<title>cluster_InfoPersonaModule_imports</title>
<polygon fill="none" stroke="#000000" points="693,-78 693,-130 1113,-130 1113,-78 693,-78"/>
</g>
<g id="clust8" class="cluster">
<title>cluster_InfoPersonaModule_exports</title>
<polygon fill="none" stroke="#000000" points="667,-208 667,-260 1064,-260 1064,-208 667,-208"/>
</g>
<g id="clust10" class="cluster">
<title>cluster_InfoPersonaModule_providers</title>
<polygon fill="none" stroke="#000000" points="16,-78 16,-130 685,-130 685,-78 16,-78"/>
</g>
<!-- CrudDocumentoProgramaComponent -->
<g id="node1" class="node">
<title>CrudDocumentoProgramaComponent</title>
<polygon fill="#ffffb3" stroke="#000000" points="2067.5702,-122 1838.4298,-122 1838.4298,-86 2067.5702,-86 2067.5702,-122"/>
<text text-anchor="middle" x="1953" y="-99.8" font-family="Times,serif" font-size="14.00" fill="#000000">CrudDocumentoProgramaComponent</text>
</g>
<!-- InfoPersonaModule -->
<g id="node5" class="node">
<title>InfoPersonaModule</title>
<polygon fill="#8dd3c7" stroke="#000000" points="929.6881,-187 926.6881,-191 905.6881,-191 902.6881,-187 802.3119,-187 802.3119,-151 929.6881,-151 929.6881,-187"/>
<text text-anchor="middle" x="866" y="-164.8" font-family="Times,serif" font-size="14.00" fill="#000000">InfoPersonaModule</text>
</g>
<!-- CrudDocumentoProgramaComponent&#45;&gt;InfoPersonaModule -->
<g id="edge1" class="edge">
<title>CrudDocumentoProgramaComponent&#45;&gt;InfoPersonaModule</title>
<path fill="none" stroke="#000000" d="M1953,-122.0109C1953,-144.4852 1953,-180 1953,-180 1953,-180 939.9386,-180 939.9386,-180"/>
<polygon fill="#000000" stroke="#000000" points="939.9387,-176.5001 929.9386,-180 939.9386,-183.5001 939.9387,-176.5001"/>
</g>
<!-- DocumentoProgramaComponent -->
<g id="node2" class="node">
<title>DocumentoProgramaComponent</title>
<polygon fill="#ffffb3" stroke="#000000" points="1820.573,-122 1619.427,-122 1619.427,-86 1820.573,-86 1820.573,-122"/>
<text text-anchor="middle" x="1720" y="-99.8" font-family="Times,serif" font-size="14.00" fill="#000000">DocumentoProgramaComponent</text>
</g>
<!-- DocumentoProgramaComponent&#45;&gt;InfoPersonaModule -->
<g id="edge2" class="edge">
<title>DocumentoProgramaComponent&#45;&gt;InfoPersonaModule</title>
<path fill="none" stroke="#000000" d="M1720,-122.1289C1720,-142.5724 1720,-173 1720,-173 1720,-173 939.8395,-173 939.8395,-173"/>
<polygon fill="#000000" stroke="#000000" points="939.8396,-169.5001 929.8395,-173 939.8395,-176.5001 939.8396,-169.5001"/>
</g>
<!-- ListDocumentoProgramaComponent -->
<g id="node3" class="node">
<title>ListDocumentoProgramaComponent</title>
<polygon fill="#ffffb3" stroke="#000000" points="1601.3514,-122 1378.6486,-122 1378.6486,-86 1601.3514,-86 1601.3514,-122"/>
<text text-anchor="middle" x="1490" y="-99.8" font-family="Times,serif" font-size="14.00" fill="#000000">ListDocumentoProgramaComponent</text>
</g>
<!-- ListDocumentoProgramaComponent&#45;&gt;InfoPersonaModule -->
<g id="edge3" class="edge">
<title>ListDocumentoProgramaComponent&#45;&gt;InfoPersonaModule</title>
<path fill="none" stroke="#000000" d="M1490,-122.2667C1490,-140.5552 1490,-166 1490,-166 1490,-166 939.8465,-166 939.8465,-166"/>
<polygon fill="#000000" stroke="#000000" points="939.8465,-162.5001 929.8465,-166 939.8464,-169.5001 939.8465,-162.5001"/>
</g>
<!-- ViewDocumentoProgramaComponent -->
<g id="node4" class="node">
<title>ViewDocumentoProgramaComponent</title>
<polygon fill="#ffffb3" stroke="#000000" points="1360.8917,-122 1129.1083,-122 1129.1083,-86 1360.8917,-86 1360.8917,-122"/>
<text text-anchor="middle" x="1245" y="-99.8" font-family="Times,serif" font-size="14.00" fill="#000000">ViewDocumentoProgramaComponent</text>
</g>
<!-- ViewDocumentoProgramaComponent&#45;&gt;InfoPersonaModule -->
<g id="edge4" class="edge">
<title>ViewDocumentoProgramaComponent&#45;&gt;InfoPersonaModule</title>
<path fill="none" stroke="#000000" d="M1245,-122.0091C1245,-138.0494 1245,-159 1245,-159 1245,-159 939.8636,-159 939.8636,-159"/>
<polygon fill="#000000" stroke="#000000" points="939.8636,-155.5001 929.8636,-159 939.8636,-162.5001 939.8636,-155.5001"/>
</g>
<!-- CrudInfoPersonaComponent  -->
<g id="node9" class="node">
<title>CrudInfoPersonaComponent </title>
<polygon fill="#fb8072" stroke="#000000" points="1056.4684,-252 875.5316,-252 875.5316,-216 1056.4684,-216 1056.4684,-252"/>
<text text-anchor="middle" x="966" y="-229.8" font-family="Times,serif" font-size="14.00" fill="#000000">CrudInfoPersonaComponent </text>
</g>
<!-- InfoPersonaModule&#45;&gt;CrudInfoPersonaComponent  -->
<g id="edge8" class="edge">
<title>InfoPersonaModule&#45;&gt;CrudInfoPersonaComponent </title>
<path fill="none" stroke="#000000" stroke-dasharray="5,2" d="M902.6801,-187.1061C902.6801,-187.1061 902.6801,-205.991 902.6801,-205.991"/>
<polygon fill="#000000" stroke="#000000" points="899.1801,-205.9909 902.6801,-215.991 906.1801,-205.991 899.1801,-205.9909"/>
</g>
<!-- ViewInfoPersonaComponent  -->
<g id="node10" class="node">
<title>ViewInfoPersonaComponent </title>
<polygon fill="#fb8072" stroke="#000000" points="857.2891,-252 674.7109,-252 674.7109,-216 857.2891,-216 857.2891,-252"/>
<text text-anchor="middle" x="766" y="-229.8" font-family="Times,serif" font-size="14.00" fill="#000000">ViewInfoPersonaComponent </text>
</g>
<!-- InfoPersonaModule&#45;&gt;ViewInfoPersonaComponent  -->
<g id="edge9" class="edge">
<title>InfoPersonaModule&#45;&gt;ViewInfoPersonaComponent </title>
<path fill="none" stroke="#000000" stroke-dasharray="5,2" d="M829.9002,-187.1061C829.9002,-187.1061 829.9002,-205.991 829.9002,-205.991"/>
<polygon fill="#000000" stroke="#000000" points="826.4003,-205.9909 829.9002,-215.991 833.4003,-205.991 826.4003,-205.9909"/>
</g>
<!-- InfoPersonaRoutingModule -->
<g id="node6" class="node">
<title>InfoPersonaRoutingModule</title>
<polygon fill="#8dd3c7" stroke="#000000" points="1105.3061,-122 1102.3061,-126 1081.3061,-126 1078.3061,-122 932.6939,-122 932.6939,-86 1105.3061,-86 1105.3061,-122"/>
<text text-anchor="middle" x="1019" y="-99.8" font-family="Times,serif" font-size="14.00" fill="#000000">InfoPersonaRoutingModule</text>
</g>
<!-- InfoPersonaRoutingModule&#45;&gt;InfoPersonaModule -->
<g id="edge5" class="edge">
<title>InfoPersonaRoutingModule&#45;&gt;InfoPersonaModule</title>
<path fill="none" stroke="#000000" d="M932.7402,-104C926.3881,-104 922.4026,-104 922.4026,-104 922.4026,-104 922.4026,-140.8939 922.4026,-140.8939"/>
<polygon fill="#000000" stroke="#000000" points="918.9026,-140.8938 922.4026,-150.8939 925.9026,-140.8939 918.9026,-140.8938"/>
</g>
<!-- SharedModule -->
<g id="node7" class="node">
<title>SharedModule</title>
<polygon fill="#8dd3c7" stroke="#000000" points="915.4231,-122 912.4231,-126 891.4231,-126 888.4231,-122 816.5769,-122 816.5769,-86 915.4231,-86 915.4231,-122"/>
<text text-anchor="middle" x="866" y="-99.8" font-family="Times,serif" font-size="14.00" fill="#000000">SharedModule</text>
</g>
<!-- SharedModule&#45;&gt;InfoPersonaModule -->
<g id="edge6" class="edge">
<title>SharedModule&#45;&gt;InfoPersonaModule</title>
<path fill="none" stroke="#000000" d="M866,-122.1061C866,-122.1061 866,-140.991 866,-140.991"/>
<polygon fill="#000000" stroke="#000000" points="862.5001,-140.9909 866,-150.991 869.5001,-140.991 862.5001,-140.9909"/>
</g>
<!-- ThemeModule -->
<g id="node8" class="node">
<title>ThemeModule</title>
<polygon fill="#8dd3c7" stroke="#000000" points="799.4231,-122 796.4231,-126 775.4231,-126 772.4231,-122 700.5769,-122 700.5769,-86 799.4231,-86 799.4231,-122"/>
<text text-anchor="middle" x="750" y="-99.8" font-family="Times,serif" font-size="14.00" fill="#000000">ThemeModule</text>
</g>
<!-- ThemeModule&#45;&gt;InfoPersonaModule -->
<g id="edge7" class="edge">
<title>ThemeModule&#45;&gt;InfoPersonaModule</title>
<path fill="none" stroke="#000000" d="M799.2164,-104C805.3925,-104 809.5975,-104 809.5975,-104 809.5975,-104 809.5975,-140.8939 809.5975,-140.8939"/>
<polygon fill="#000000" stroke="#000000" points="806.0975,-140.8938 809.5975,-150.8939 813.0975,-140.8939 806.0975,-140.8938"/>
</g>
<!-- CampusMidService -->
<g id="node11" class="node">
<title>CampusMidService</title>
<ellipse fill="#fdb462" stroke="#000000" cx="589" cy="-104" rx="87.98" ry="18"/>
<text text-anchor="middle" x="589" y="-99.8" font-family="Times,serif" font-size="14.00" fill="#000000">CampusMidService</text>
</g>
<!-- CampusMidService&#45;&gt;InfoPersonaModule -->
<g id="edge10" class="edge">
<title>CampusMidService&#45;&gt;InfoPersonaModule</title>
<path fill="none" stroke="#000000" d="M587.9329,-122.0091C587.9329,-138.0494 587.9329,-159 587.9329,-159 587.9329,-159 792.2058,-159 792.2058,-159"/>
<polygon fill="#000000" stroke="#000000" points="792.2058,-162.5001 802.2058,-159 792.2058,-155.5001 792.2058,-162.5001"/>
</g>
<!-- EnteService -->
<g id="node12" class="node">
<title>EnteService</title>
<ellipse fill="#fdb462" stroke="#000000" cx="426" cy="-104" rx="57.881" ry="18"/>
<text text-anchor="middle" x="426" y="-99.8" font-family="Times,serif" font-size="14.00" fill="#000000">EnteService</text>
</g>
<!-- EnteService&#45;&gt;InfoPersonaModule -->
<g id="edge11" class="edge">
<title>EnteService&#45;&gt;InfoPersonaModule</title>
<path fill="none" stroke="#000000" d="M426,-122.2667C426,-140.5552 426,-166 426,-166 426,-166 792.0202,-166 792.0202,-166"/>
<polygon fill="#000000" stroke="#000000" points="792.0203,-169.5001 802.0202,-166 792.0202,-162.5001 792.0203,-169.5001"/>
</g>
<!-- InscripcionService -->
<g id="node13" class="node">
<title>InscripcionService</title>
<ellipse fill="#fdb462" stroke="#000000" cx="267" cy="-104" rx="83.3635" ry="18"/>
<text text-anchor="middle" x="267" y="-99.8" font-family="Times,serif" font-size="14.00" fill="#000000">InscripcionService</text>
</g>
<!-- InscripcionService&#45;&gt;InfoPersonaModule -->
<g id="edge12" class="edge">
<title>InscripcionService&#45;&gt;InfoPersonaModule</title>
<path fill="none" stroke="#000000" d="M267,-122.1289C267,-142.5724 267,-173 267,-173 267,-173 792.1803,-173 792.1803,-173"/>
<polygon fill="#000000" stroke="#000000" points="792.1803,-176.5001 802.1803,-173 792.1803,-169.5001 792.1803,-176.5001"/>
</g>
<!-- PersonaService -->
<g id="node14" class="node">
<title>PersonaService</title>
<ellipse fill="#fdb462" stroke="#000000" cx="95" cy="-104" rx="70.622" ry="18"/>
<text text-anchor="middle" x="95" y="-99.8" font-family="Times,serif" font-size="14.00" fill="#000000">PersonaService</text>
</g>
<!-- PersonaService&#45;&gt;InfoPersonaModule -->
<g id="edge13" class="edge">
<title>PersonaService&#45;&gt;InfoPersonaModule</title>
<path fill="none" stroke="#000000" d="M95,-122.0109C95,-144.4852 95,-180 95,-180 95,-180 792.2499,-180 792.2499,-180"/>
<polygon fill="#000000" stroke="#000000" points="792.2499,-183.5001 802.2499,-180 792.2499,-176.5001 792.2499,-183.5001"/>
</g>
</g>
</svg>
