<?xml version="1.0" encoding="UTF-8" standalone="no"?>
<!DOCTYPE svg PUBLIC "-//W3C//DTD SVG 1.1//EN"
 "http://www.w3.org/Graphics/SVG/1.1/DTD/svg11.dtd">
<!-- Generated by graphviz version 2.40.1 (20161225.0304)
 -->
<!-- Title: dependencies Pages: 1 -->
<svg width="1430pt" height="284pt"
 viewBox="0.00 0.00 1430.00 284.00" xmlns="http://www.w3.org/2000/svg" xmlns:xlink="http://www.w3.org/1999/xlink">
<g id="graph0" class="graph" transform="scale(1 1) rotate(0) translate(4 280)">
<title>dependencies</title>
<polygon fill="#ffffff" stroke="transparent" points="-4,4 -4,-280 1426,-280 1426,4 -4,4"/>
<text text-anchor="start" x="690.0091" y="-42.4" font-family="sans-serif" font-weight="bold" font-size="14.00" fill="#000000">Legend</text>
<polygon fill="#ffffb3" stroke="transparent" points="477,-10 477,-30 497,-30 497,-10 477,-10"/>
<text text-anchor="start" x="500.629" y="-15.4" font-family="sans-serif" font-size="14.00" fill="#000000"> &#160;Declarations</text>
<polygon fill="#8dd3c7" stroke="transparent" points="590,-10 590,-30 610,-30 610,-10 590,-10"/>
<text text-anchor="start" x="613.7251" y="-15.4" font-family="sans-serif" font-size="14.00" fill="#000000"> &#160;Module</text>
<polygon fill="#80b1d3" stroke="transparent" points="676,-10 676,-30 696,-30 696,-10 676,-10"/>
<text text-anchor="start" x="699.7812" y="-15.4" font-family="sans-serif" font-size="14.00" fill="#000000"> &#160;Bootstrap</text>
<polygon fill="#fdb462" stroke="transparent" points="773,-10 773,-30 793,-30 793,-10 773,-10"/>
<text text-anchor="start" x="796.6732" y="-15.4" font-family="sans-serif" font-size="14.00" fill="#000000"> &#160;Providers</text>
<polygon fill="#fb8072" stroke="transparent" points="869,-10 869,-30 889,-30 889,-10 869,-10"/>
<text text-anchor="start" x="892.7258" y="-15.4" font-family="sans-serif" font-size="14.00" fill="#000000"> &#160;Exports</text>
<g id="clust1" class="cluster">
<title>cluster_ProgramasVirtualesModule</title>
<polygon fill="none" stroke="#000000" stroke-dasharray="1,5" points="8,-70 8,-268 1414,-268 1414,-70 8,-70"/>
</g>
<g id="clust2" class="cluster">
<title>cluster_ProgramasVirtualesModule_declarations</title>
<polygon fill="none" stroke="#000000" points="488,-78 488,-130 1406,-130 1406,-78 488,-78"/>
</g>
<g id="clust7" class="cluster">
<title>cluster_ProgramasVirtualesModule_imports</title>
<polygon fill="none" stroke="#000000" points="16,-78 16,-130 480,-130 480,-78 16,-78"/>
</g>
<g id="clust8" class="cluster">
<title>cluster_ProgramasVirtualesModule_exports</title>
<polygon fill="none" stroke="#000000" points="406,-208 406,-260 800,-260 800,-208 406,-208"/>
</g>
<!-- CrudExperienciaLaboralComponent -->
<g id="node1" class="node">
<title>CrudExperienciaLaboralComponent</title>
<polygon fill="#ffffb3" stroke="#000000" points="1397.7156,-122 1178.2844,-122 1178.2844,-86 1397.7156,-86 1397.7156,-122"/>
<text text-anchor="middle" x="1288" y="-99.8" font-family="Times,serif" font-size="14.00" fill="#000000">CrudExperienciaLaboralComponent</text>
</g>
<!-- ProgramasVirtualesModule -->
<g id="node5" class="node">
<title>ProgramasVirtualesModule</title>
<polygon fill="#8dd3c7" stroke="#000000" points="692.231,-187 689.231,-191 668.231,-191 665.231,-187 521.769,-187 521.769,-151 692.231,-151 692.231,-187"/>
<text text-anchor="middle" x="607" y="-164.8" font-family="Times,serif" font-size="14.00" fill="#000000">ProgramasVirtualesModule</text>
</g>
<!-- CrudExperienciaLaboralComponent&#45;&gt;ProgramasVirtualesModule -->
<g id="edge1" class="edge">
<title>CrudExperienciaLaboralComponent&#45;&gt;ProgramasVirtualesModule</title>
<path fill="none" stroke="#000000" d="M1288,-122.2921C1288,-144.2057 1288,-178 1288,-178 1288,-178 702.5596,-178 702.5596,-178"/>
<polygon fill="#000000" stroke="#000000" points="702.5596,-174.5001 692.5596,-178 702.5595,-181.5001 702.5596,-174.5001"/>
</g>
<!-- ExperienciaLaboralComponent -->
<g id="node2" class="node">
<title>ExperienciaLaboralComponent</title>
<polygon fill="#ffffb3" stroke="#000000" points="1159.7184,-122 968.2816,-122 968.2816,-86 1159.7184,-86 1159.7184,-122"/>
<text text-anchor="middle" x="1064" y="-99.8" font-family="Times,serif" font-size="14.00" fill="#000000">ExperienciaLaboralComponent</text>
</g>
<!-- ExperienciaLaboralComponent&#45;&gt;ProgramasVirtualesModule -->
<g id="edge2" class="edge">
<title>ExperienciaLaboralComponent&#45;&gt;ProgramasVirtualesModule</title>
<path fill="none" stroke="#000000" d="M1064,-122.1061C1064,-141.3391 1064,-169 1064,-169 1064,-169 702.4221,-169 702.4221,-169"/>
<polygon fill="#000000" stroke="#000000" points="702.4221,-165.5001 692.4221,-169 702.4221,-172.5001 702.4221,-165.5001"/>
</g>
<!-- ListExperienciaLaboralComponent -->
<g id="node3" class="node">
<title>ListExperienciaLaboralComponent</title>
<polygon fill="#ffffb3" stroke="#000000" points="949.9972,-122 736.0028,-122 736.0028,-86 949.9972,-86 949.9972,-122"/>
<text text-anchor="middle" x="843" y="-99.8" font-family="Times,serif" font-size="14.00" fill="#000000">ListExperienciaLaboralComponent</text>
</g>
<!-- ListExperienciaLaboralComponent&#45;&gt;ProgramasVirtualesModule -->
<g id="edge3" class="edge">
<title>ListExperienciaLaboralComponent&#45;&gt;ProgramasVirtualesModule</title>
<path fill="none" stroke="#000000" d="M764.2484,-122.027C764.2484,-138.3976 764.2484,-160 764.2484,-160 764.2484,-160 702.5266,-160 702.5266,-160"/>
<polygon fill="#000000" stroke="#000000" points="702.5267,-156.5001 692.5266,-160 702.5266,-163.5001 702.5267,-156.5001"/>
</g>
<!-- ViewExperienciaLaboralComponent -->
<g id="node4" class="node">
<title>ViewExperienciaLaboralComponent</title>
<polygon fill="#ffffb3" stroke="#000000" points="718.0366,-122 495.9634,-122 495.9634,-86 718.0366,-86 718.0366,-122"/>
<text text-anchor="middle" x="607" y="-99.8" font-family="Times,serif" font-size="14.00" fill="#000000">ViewExperienciaLaboralComponent</text>
</g>
<!-- ViewExperienciaLaboralComponent&#45;&gt;ProgramasVirtualesModule -->
<g id="edge4" class="edge">
<title>ViewExperienciaLaboralComponent&#45;&gt;ProgramasVirtualesModule</title>
<path fill="none" stroke="#000000" d="M607,-122.1061C607,-122.1061 607,-140.991 607,-140.991"/>
<polygon fill="#000000" stroke="#000000" points="603.5001,-140.9909 607,-150.991 610.5001,-140.991 603.5001,-140.9909"/>
</g>
<!-- EETComponent  -->
<g id="node9" class="node">
<title>EETComponent </title>
<polygon fill="#fb8072" stroke="#000000" points="792.4913,-252 681.5087,-252 681.5087,-216 792.4913,-216 792.4913,-252"/>
<text text-anchor="middle" x="737" y="-229.8" font-family="Times,serif" font-size="14.00" fill="#000000">EETComponent </text>
</g>
<!-- ProgramasVirtualesModule&#45;&gt;EETComponent  -->
<g id="edge8" class="edge">
<title>ProgramasVirtualesModule&#45;&gt;EETComponent </title>
<path fill="none" stroke="#000000" stroke-dasharray="5,2" d="M687.0602,-187.1061C687.0602,-187.1061 687.0602,-205.991 687.0602,-205.991"/>
<polygon fill="#000000" stroke="#000000" points="683.5602,-205.9909 687.0602,-215.991 690.5602,-205.991 683.5602,-205.9909"/>
</g>
<!-- METComponent  -->
<g id="node10" class="node">
<title>METComponent </title>
<polygon fill="#fb8072" stroke="#000000" points="664.3828,-252 549.6172,-252 549.6172,-216 664.3828,-216 664.3828,-252"/>
<text text-anchor="middle" x="607" y="-229.8" font-family="Times,serif" font-size="14.00" fill="#000000">METComponent </text>
</g>
<!-- ProgramasVirtualesModule&#45;&gt;METComponent  -->
<g id="edge9" class="edge">
<title>ProgramasVirtualesModule&#45;&gt;METComponent </title>
<path fill="none" stroke="#000000" stroke-dasharray="5,2" d="M607,-187.1061C607,-187.1061 607,-205.991 607,-205.991"/>
<polygon fill="#000000" stroke="#000000" points="603.5001,-205.9909 607,-215.991 610.5001,-205.991 603.5001,-205.9909"/>
</g>
<!-- MTMComponent  -->
<g id="node11" class="node">
<title>MTMComponent </title>
<polygon fill="#fb8072" stroke="#000000" points="532.2745,-252 413.7255,-252 413.7255,-216 532.2745,-216 532.2745,-252"/>
<text text-anchor="middle" x="473" y="-229.8" font-family="Times,serif" font-size="14.00" fill="#000000">MTMComponent </text>
</g>
<!-- ProgramasVirtualesModule&#45;&gt;MTMComponent  -->
<g id="edge10" class="edge">
<title>ProgramasVirtualesModule&#45;&gt;MTMComponent </title>
<path fill="none" stroke="#000000" stroke-dasharray="5,2" d="M526.8859,-187.1061C526.8859,-187.1061 526.8859,-205.991 526.8859,-205.991"/>
<polygon fill="#000000" stroke="#000000" points="523.3859,-205.9909 526.8859,-215.991 530.3859,-205.991 523.3859,-205.9909"/>
</g>
<!-- ProgramasVirtualesRoutingModule -->
<g id="node6" class="node">
<title>ProgramasVirtualesRoutingModule</title>
<polygon fill="#8dd3c7" stroke="#000000" points="471.8487,-122 468.8487,-126 447.8487,-126 444.8487,-122 256.1513,-122 256.1513,-86 471.8487,-86 471.8487,-122"/>
<text text-anchor="middle" x="364" y="-99.8" font-family="Times,serif" font-size="14.00" fill="#000000">ProgramasVirtualesRoutingModule</text>
</g>
<!-- ProgramasVirtualesRoutingModule&#45;&gt;ProgramasVirtualesModule -->
<g id="edge5" class="edge">
<title>ProgramasVirtualesRoutingModule&#45;&gt;ProgramasVirtualesModule</title>
<path fill="none" stroke="#000000" d="M442.8936,-122.027C442.8936,-138.3976 442.8936,-160 442.8936,-160 442.8936,-160 511.5822,-160 511.5822,-160"/>
<polygon fill="#000000" stroke="#000000" points="511.5822,-163.5001 521.5822,-160 511.5821,-156.5001 511.5822,-163.5001"/>
</g>
<!-- SharedModule -->
<g id="node7" class="node">
<title>SharedModule</title>
<polygon fill="#8dd3c7" stroke="#000000" points="238.4231,-122 235.4231,-126 214.4231,-126 211.4231,-122 139.5769,-122 139.5769,-86 238.4231,-86 238.4231,-122"/>
<text text-anchor="middle" x="189" y="-99.8" font-family="Times,serif" font-size="14.00" fill="#000000">SharedModule</text>
</g>
<!-- SharedModule&#45;&gt;ProgramasVirtualesModule -->
<g id="edge6" class="edge">
<title>SharedModule&#45;&gt;ProgramasVirtualesModule</title>
<path fill="none" stroke="#000000" d="M189,-122.1061C189,-141.3391 189,-169 189,-169 189,-169 511.6553,-169 511.6553,-169"/>
<polygon fill="#000000" stroke="#000000" points="511.6554,-172.5001 521.6553,-169 511.6553,-165.5001 511.6554,-172.5001"/>
</g>
<!-- ThemeModule -->
<g id="node8" class="node">
<title>ThemeModule</title>
<polygon fill="#8dd3c7" stroke="#000000" points="122.4231,-122 119.4231,-126 98.4231,-126 95.4231,-122 23.5769,-122 23.5769,-86 122.4231,-86 122.4231,-122"/>
<text text-anchor="middle" x="73" y="-99.8" font-family="Times,serif" font-size="14.00" fill="#000000">ThemeModule</text>
</g>
<!-- ThemeModule&#45;&gt;ProgramasVirtualesModule -->
<g id="edge7" class="edge">
<title>ThemeModule&#45;&gt;ProgramasVirtualesModule</title>
<path fill="none" stroke="#000000" d="M73,-122.2921C73,-144.2057 73,-178 73,-178 73,-178 511.4998,-178 511.4998,-178"/>
<polygon fill="#000000" stroke="#000000" points="511.4999,-181.5001 521.4998,-178 511.4998,-174.5001 511.4999,-181.5001"/>
</g>
</g>
</svg>
