<?xml version="1.0" encoding="UTF-8" standalone="no"?>
<!DOCTYPE svg PUBLIC "-//W3C//DTD SVG 1.1//EN"
 "http://www.w3.org/Graphics/SVG/1.1/DTD/svg11.dtd">
<!-- Generated by graphviz version 2.40.1 (20161225.0304)
 -->
<!-- Title: dependencies Pages: 1 -->
<svg width="3132pt" height="284pt"
 viewBox="0.00 0.00 3132.00 284.00" xmlns="http://www.w3.org/2000/svg" xmlns:xlink="http://www.w3.org/1999/xlink">
<g id="graph0" class="graph" transform="scale(1 1) rotate(0) translate(4 280)">
<title>dependencies</title>
<polygon fill="#ffffff" stroke="transparent" points="-4,4 -4,-280 3128,-280 3128,4 -4,4"/>
<text text-anchor="start" x="1541.0091" y="-42.4" font-family="sans-serif" font-weight="bold" font-size="14.00" fill="#000000">Legend</text>
<polygon fill="#ffffb3" stroke="transparent" points="1328,-10 1328,-30 1348,-30 1348,-10 1328,-10"/>
<text text-anchor="start" x="1351.629" y="-15.4" font-family="sans-serif" font-size="14.00" fill="#000000"> &#160;Declarations</text>
<polygon fill="#8dd3c7" stroke="transparent" points="1441,-10 1441,-30 1461,-30 1461,-10 1441,-10"/>
<text text-anchor="start" x="1464.7251" y="-15.4" font-family="sans-serif" font-size="14.00" fill="#000000"> &#160;Module</text>
<polygon fill="#80b1d3" stroke="transparent" points="1527,-10 1527,-30 1547,-30 1547,-10 1527,-10"/>
<text text-anchor="start" x="1550.7812" y="-15.4" font-family="sans-serif" font-size="14.00" fill="#000000"> &#160;Bootstrap</text>
<polygon fill="#fdb462" stroke="transparent" points="1624,-10 1624,-30 1644,-30 1644,-10 1624,-10"/>
<text text-anchor="start" x="1647.6732" y="-15.4" font-family="sans-serif" font-size="14.00" fill="#000000"> &#160;Providers</text>
<polygon fill="#fb8072" stroke="transparent" points="1720,-10 1720,-30 1740,-30 1740,-10 1720,-10"/>
<text text-anchor="start" x="1743.7258" y="-15.4" font-family="sans-serif" font-size="14.00" fill="#000000"> &#160;Exports</text>
<g id="clust1" class="cluster">
<title>cluster_PagoLineaModule</title>
<polygon fill="none" stroke="#000000" stroke-dasharray="1,5" points="8,-70 8,-268 3116,-268 3116,-70 8,-70"/>
</g>
<g id="clust2" class="cluster">
<title>cluster_PagoLineaModule_declarations</title>
<polygon fill="none" stroke="#000000" points="2190,-78 2190,-130 3108,-130 3108,-78 2190,-78"/>
</g>
<g id="clust7" class="cluster">
<title>cluster_PagoLineaModule_imports</title>
<polygon fill="none" stroke="#000000" points="1770,-78 1770,-130 2182,-130 2182,-78 1770,-78"/>
</g>
<g id="clust8" class="cluster">
<title>cluster_PagoLineaModule_exports</title>
<polygon fill="none" stroke="#000000" points="1305,-208 1305,-260 1704,-260 1704,-208 1305,-208"/>
</g>
<g id="clust10" class="cluster">
<title>cluster_PagoLineaModule_providers</title>
<polygon fill="none" stroke="#000000" points="16,-78 16,-130 1762,-130 1762,-78 16,-78"/>
</g>
<!-- CrudExperienciaLaboralComponent -->
<g id="node1" class="node">
<title>CrudExperienciaLaboralComponent</title>
<polygon fill="#ffffb3" stroke="#000000" points="3099.7156,-122 2880.2844,-122 2880.2844,-86 3099.7156,-86 3099.7156,-122"/>
<text text-anchor="middle" x="2990" y="-99.8" font-family="Times,serif" font-size="14.00" fill="#000000">CrudExperienciaLaboralComponent</text>
</g>
<!-- PagoLineaModule -->
<g id="node5" class="node">
<title>PagoLineaModule</title>
<polygon fill="#8dd3c7" stroke="#000000" points="1560.9201,-187 1557.9201,-191 1536.9201,-191 1533.9201,-187 1441.0799,-187 1441.0799,-151 1560.9201,-151 1560.9201,-187"/>
<text text-anchor="middle" x="1501" y="-164.8" font-family="Times,serif" font-size="14.00" fill="#000000">PagoLineaModule</text>
</g>
<!-- CrudExperienciaLaboralComponent&#45;&gt;PagoLineaModule -->
<g id="edge1" class="edge">
<title>CrudExperienciaLaboralComponent&#45;&gt;PagoLineaModule</title>
<path fill="none" stroke="#000000" d="M2990,-122.3228C2990,-145.6602 2990,-183 2990,-183 2990,-183 1570.7513,-183 1570.7513,-183"/>
<polygon fill="#000000" stroke="#000000" points="1570.7513,-179.5001 1560.7513,-183 1570.7512,-186.5001 1570.7513,-179.5001"/>
</g>
<!-- ExperienciaLaboralComponent -->
<g id="node2" class="node">
<title>ExperienciaLaboralComponent</title>
<polygon fill="#ffffb3" stroke="#000000" points="2861.7184,-122 2670.2816,-122 2670.2816,-86 2861.7184,-86 2861.7184,-122"/>
<text text-anchor="middle" x="2766" y="-99.8" font-family="Times,serif" font-size="14.00" fill="#000000">ExperienciaLaboralComponent</text>
</g>
<!-- ExperienciaLaboralComponent&#45;&gt;PagoLineaModule -->
<g id="edge2" class="edge">
<title>ExperienciaLaboralComponent&#45;&gt;PagoLineaModule</title>
<path fill="none" stroke="#000000" d="M2766,-122.1554C2766,-144.3519 2766,-179 2766,-179 2766,-179 1570.7391,-179 1570.7391,-179"/>
<polygon fill="#000000" stroke="#000000" points="1570.7391,-175.5001 1560.7391,-179 1570.739,-182.5001 1570.7391,-175.5001"/>
</g>
<!-- ListExperienciaLaboralComponent -->
<g id="node3" class="node">
<title>ListExperienciaLaboralComponent</title>
<polygon fill="#ffffb3" stroke="#000000" points="2651.9972,-122 2438.0028,-122 2438.0028,-86 2651.9972,-86 2651.9972,-122"/>
<text text-anchor="middle" x="2545" y="-99.8" font-family="Times,serif" font-size="14.00" fill="#000000">ListExperienciaLaboralComponent</text>
</g>
<!-- ListExperienciaLaboralComponent&#45;&gt;PagoLineaModule -->
<g id="edge3" class="edge">
<title>ListExperienciaLaboralComponent&#45;&gt;PagoLineaModule</title>
<path fill="none" stroke="#000000" d="M2545,-122.2843C2545,-143.3211 2545,-175 2545,-175 2545,-175 1570.8797,-175 1570.8797,-175"/>
<polygon fill="#000000" stroke="#000000" points="1570.8797,-171.5001 1560.8797,-175 1570.8797,-178.5001 1570.8797,-171.5001"/>
</g>
<!-- ViewExperienciaLaboralComponent -->
<g id="node4" class="node">
<title>ViewExperienciaLaboralComponent</title>
<polygon fill="#ffffb3" stroke="#000000" points="2420.0366,-122 2197.9634,-122 2197.9634,-86 2420.0366,-86 2420.0366,-122"/>
<text text-anchor="middle" x="2309" y="-99.8" font-family="Times,serif" font-size="14.00" fill="#000000">ViewExperienciaLaboralComponent</text>
</g>
<!-- ViewExperienciaLaboralComponent&#45;&gt;PagoLineaModule -->
<g id="edge4" class="edge">
<title>ViewExperienciaLaboralComponent&#45;&gt;PagoLineaModule</title>
<path fill="none" stroke="#000000" d="M2309,-122.308C2309,-142.1455 2309,-171 2309,-171 2309,-171 1570.7423,-171 1570.7423,-171"/>
<polygon fill="#000000" stroke="#000000" points="1570.7423,-167.5001 1560.7423,-171 1570.7423,-174.5001 1570.7423,-167.5001"/>
</g>
<!-- PagoComprobanteComponent  -->
<g id="node9" class="node">
<title>PagoComprobanteComponent </title>
<polygon fill="#fb8072" stroke="#000000" points="1695.5372,-252 1506.4628,-252 1506.4628,-216 1695.5372,-216 1695.5372,-252"/>
<text text-anchor="middle" x="1601" y="-229.8" font-family="Times,serif" font-size="14.00" fill="#000000">PagoComprobanteComponent </text>
</g>
<!-- PagoLineaModule&#45;&gt;PagoComprobanteComponent  -->
<g id="edge8" class="edge">
<title>PagoLineaModule&#45;&gt;PagoComprobanteComponent </title>
<path fill="none" stroke="#000000" stroke-dasharray="5,2" d="M1533.5956,-187.1061C1533.5956,-187.1061 1533.5956,-205.991 1533.5956,-205.991"/>
<polygon fill="#000000" stroke="#000000" points="1530.0956,-205.9909 1533.5956,-215.991 1537.0956,-205.991 1530.0956,-205.9909"/>
</g>
<!-- PagoInscripcionComponent  -->
<g id="node10" class="node">
<title>PagoInscripcionComponent </title>
<polygon fill="#fb8072" stroke="#000000" points="1488.8059,-252 1313.1941,-252 1313.1941,-216 1488.8059,-216 1488.8059,-252"/>
<text text-anchor="middle" x="1401" y="-229.8" font-family="Times,serif" font-size="14.00" fill="#000000">PagoInscripcionComponent </text>
</g>
<!-- PagoLineaModule&#45;&gt;PagoInscripcionComponent  -->
<g id="edge9" class="edge">
<title>PagoLineaModule&#45;&gt;PagoInscripcionComponent </title>
<path fill="none" stroke="#000000" stroke-dasharray="5,2" d="M1465.0966,-187.1061C1465.0966,-187.1061 1465.0966,-205.991 1465.0966,-205.991"/>
<polygon fill="#000000" stroke="#000000" points="1461.5967,-205.9909 1465.0966,-215.991 1468.5967,-205.991 1461.5967,-205.9909"/>
</g>
<!-- PagoLineaRoutingModule -->
<g id="node6" class="node">
<title>PagoLineaRoutingModule</title>
<polygon fill="#8dd3c7" stroke="#000000" points="2174.0378,-122 2171.0378,-126 2150.0378,-126 2147.0378,-122 2009.9622,-122 2009.9622,-86 2174.0378,-86 2174.0378,-122"/>
<text text-anchor="middle" x="2092" y="-99.8" font-family="Times,serif" font-size="14.00" fill="#000000">PagoLineaRoutingModule</text>
</g>
<!-- PagoLineaRoutingModule&#45;&gt;PagoLineaModule -->
<g id="edge5" class="edge">
<title>PagoLineaRoutingModule&#45;&gt;PagoLineaModule</title>
<path fill="none" stroke="#000000" d="M2092,-122.2222C2092,-140.8285 2092,-167 2092,-167 2092,-167 1570.9206,-167 1570.9206,-167"/>
<polygon fill="#000000" stroke="#000000" points="1570.9206,-163.5001 1560.9206,-167 1570.9206,-170.5001 1570.9206,-163.5001"/>
</g>
<!-- SharedModule -->
<g id="node7" class="node">
<title>SharedModule</title>
<polygon fill="#8dd3c7" stroke="#000000" points="1992.4231,-122 1989.4231,-126 1968.4231,-126 1965.4231,-122 1893.5769,-122 1893.5769,-86 1992.4231,-86 1992.4231,-122"/>
<text text-anchor="middle" x="1943" y="-99.8" font-family="Times,serif" font-size="14.00" fill="#000000">SharedModule</text>
</g>
<!-- SharedModule&#45;&gt;PagoLineaModule -->
<g id="edge6" class="edge">
<title>SharedModule&#45;&gt;PagoLineaModule</title>
<path fill="none" stroke="#000000" d="M1943,-122.0225C1943,-139.3734 1943,-163 1943,-163 1943,-163 1571.0701,-163 1571.0701,-163"/>
<polygon fill="#000000" stroke="#000000" points="1571.0701,-159.5001 1561.0701,-163 1571.07,-166.5001 1571.0701,-159.5001"/>
</g>
<!-- ThemeModule -->
<g id="node8" class="node">
<title>ThemeModule</title>
<polygon fill="#8dd3c7" stroke="#000000" points="1876.4231,-122 1873.4231,-126 1852.4231,-126 1849.4231,-122 1777.5769,-122 1777.5769,-86 1876.4231,-86 1876.4231,-122"/>
<text text-anchor="middle" x="1827" y="-99.8" font-family="Times,serif" font-size="14.00" fill="#000000">ThemeModule</text>
</g>
<!-- ThemeModule&#45;&gt;PagoLineaModule -->
<g id="edge7" class="edge">
<title>ThemeModule&#45;&gt;PagoLineaModule</title>
<path fill="none" stroke="#000000" d="M1827,-122.0091C1827,-138.0494 1827,-159 1827,-159 1827,-159 1570.7934,-159 1570.7934,-159"/>
<polygon fill="#000000" stroke="#000000" points="1570.7935,-155.5001 1560.7934,-159 1570.7934,-162.5001 1570.7935,-155.5001"/>
</g>
<!-- CampusMidService -->
<g id="node11" class="node">
<title>CampusMidService</title>
<ellipse fill="#fdb462" stroke="#000000" cx="1666" cy="-104" rx="87.98" ry="18"/>
<text text-anchor="middle" x="1666" y="-99.8" font-family="Times,serif" font-size="14.00" fill="#000000">CampusMidService</text>
</g>
<!-- CampusMidService&#45;&gt;PagoLineaModule -->
<g id="edge10" class="edge">
<title>CampusMidService&#45;&gt;PagoLineaModule</title>
<path fill="none" stroke="#000000" d="M1636.8895,-120.9823C1636.8895,-135.8182 1636.8895,-155 1636.8895,-155 1636.8895,-155 1570.9987,-155 1570.9987,-155"/>
<polygon fill="#000000" stroke="#000000" points="1570.9987,-151.5001 1560.9987,-155 1570.9986,-158.5001 1570.9987,-151.5001"/>
</g>
<!-- CoreService -->
<g id="node12" class="node">
<title>CoreService</title>
<ellipse fill="#fdb462" stroke="#000000" cx="1501" cy="-104" rx="58.5251" ry="18"/>
<text text-anchor="middle" x="1501" y="-99.8" font-family="Times,serif" font-size="14.00" fill="#000000">CoreService</text>
</g>
<!-- CoreService&#45;&gt;PagoLineaModule -->
<g id="edge11" class="edge">
<title>CoreService&#45;&gt;PagoLineaModule</title>
<path fill="none" stroke="#000000" d="M1501,-122.1061C1501,-122.1061 1501,-140.991 1501,-140.991"/>
<polygon fill="#000000" stroke="#000000" points="1497.5001,-140.9909 1501,-150.991 1504.5001,-140.991 1497.5001,-140.9909"/>
</g>
<!-- EventoService -->
<g id="node13" class="node">
<title>EventoService</title>
<ellipse fill="#fdb462" stroke="#000000" cx="1357" cy="-104" rx="67.1946" ry="18"/>
<text text-anchor="middle" x="1357" y="-99.8" font-family="Times,serif" font-size="14.00" fill="#000000">EventoService</text>
</g>
<!-- EventoService&#45;&gt;PagoLineaModule -->
<g id="edge12" class="edge">
<title>EventoService&#45;&gt;PagoLineaModule</title>
<path fill="none" stroke="#000000" d="M1368.7221,-121.8373C1368.7221,-136.5443 1368.7221,-155 1368.7221,-155 1368.7221,-155 1431.0535,-155 1431.0535,-155"/>
<polygon fill="#000000" stroke="#000000" points="1431.0535,-158.5001 1441.0535,-155 1431.0535,-151.5001 1431.0535,-158.5001"/>
</g>
<!-- ImplicitAutenticationService -->
<g id="node14" class="node">
<title>ImplicitAutenticationService</title>
<ellipse fill="#fdb462" stroke="#000000" cx="1149" cy="-104" rx="123.2649" ry="18"/>
<text text-anchor="middle" x="1149" y="-99.8" font-family="Times,serif" font-size="14.00" fill="#000000">ImplicitAutenticationService</text>
</g>
<!-- ImplicitAutenticationService&#45;&gt;PagoLineaModule -->
<g id="edge13" class="edge">
<title>ImplicitAutenticationService&#45;&gt;PagoLineaModule</title>
<path fill="none" stroke="#000000" d="M1149,-122.0091C1149,-138.0494 1149,-159 1149,-159 1149,-159 1431.288,-159 1431.288,-159"/>
<polygon fill="#000000" stroke="#000000" points="1431.288,-162.5001 1441.288,-159 1431.288,-155.5001 1431.288,-162.5001"/>
</g>
<!-- InscripcionService -->
<g id="node15" class="node">
<title>InscripcionService</title>
<ellipse fill="#fdb462" stroke="#000000" cx="924" cy="-104" rx="83.3635" ry="18"/>
<text text-anchor="middle" x="924" y="-99.8" font-family="Times,serif" font-size="14.00" fill="#000000">InscripcionService</text>
</g>
<!-- InscripcionService&#45;&gt;PagoLineaModule -->
<g id="edge14" class="edge">
<title>InscripcionService&#45;&gt;PagoLineaModule</title>
<path fill="none" stroke="#000000" d="M924,-122.0225C924,-139.3734 924,-163 924,-163 924,-163 1431.1542,-163 1431.1542,-163"/>
<polygon fill="#000000" stroke="#000000" points="1431.1542,-166.5001 1441.1542,-163 1431.1542,-159.5001 1431.1542,-166.5001"/>
</g>
<!-- NuxeoService -->
<g id="node16" class="node">
<title>NuxeoService</title>
<ellipse fill="#fdb462" stroke="#000000" cx="757" cy="-104" rx="65.9716" ry="18"/>
<text text-anchor="middle" x="757" y="-99.8" font-family="Times,serif" font-size="14.00" fill="#000000">NuxeoService</text>
</g>
<!-- NuxeoService&#45;&gt;PagoLineaModule -->
<g id="edge15" class="edge">
<title>NuxeoService&#45;&gt;PagoLineaModule</title>
<path fill="none" stroke="#000000" d="M757,-122.2222C757,-140.8285 757,-167 757,-167 757,-167 1431.0596,-167 1431.0596,-167"/>
<polygon fill="#000000" stroke="#000000" points="1431.0597,-170.5001 1441.0596,-167 1431.0596,-163.5001 1431.0597,-170.5001"/>
</g>
<!-- PagoService -->
<g id="node17" class="node">
<title>PagoService</title>
<ellipse fill="#fdb462" stroke="#000000" cx="614" cy="-104" rx="59.1083" ry="18"/>
<text text-anchor="middle" x="614" y="-99.8" font-family="Times,serif" font-size="14.00" fill="#000000">PagoService</text>
</g>
<!-- PagoService&#45;&gt;PagoLineaModule -->
<g id="edge16" class="edge">
<title>PagoService&#45;&gt;PagoLineaModule</title>
<path fill="none" stroke="#000000" d="M614,-122.308C614,-142.1455 614,-171 614,-171 614,-171 1431.0776,-171 1431.0776,-171"/>
<polygon fill="#000000" stroke="#000000" points="1431.0776,-174.5001 1441.0776,-171 1431.0776,-167.5001 1431.0776,-174.5001"/>
</g>
<!-- PersonaService -->
<g id="node18" class="node">
<title>PersonaService</title>
<ellipse fill="#fdb462" stroke="#000000" cx="466" cy="-104" rx="70.622" ry="18"/>
<text text-anchor="middle" x="466" y="-99.8" font-family="Times,serif" font-size="14.00" fill="#000000">PersonaService</text>
</g>
<!-- PersonaService&#45;&gt;PagoLineaModule -->
<g id="edge17" class="edge">
<title>PersonaService&#45;&gt;PagoLineaModule</title>
<path fill="none" stroke="#000000" d="M466,-122.2843C466,-143.3211 466,-175 466,-175 466,-175 1431.259,-175 1431.259,-175"/>
<polygon fill="#000000" stroke="#000000" points="1431.259,-178.5001 1441.259,-175 1431.2589,-171.5001 1431.259,-178.5001"/>
</g>
<!-- ProgramaOikosService -->
<g id="node19" class="node">
<title>ProgramaOikosService</title>
<ellipse fill="#fdb462" stroke="#000000" cx="277" cy="-104" rx="100.6998" ry="18"/>
<text text-anchor="middle" x="277" y="-99.8" font-family="Times,serif" font-size="14.00" fill="#000000">ProgramaOikosService</text>
</g>
<!-- ProgramaOikosService&#45;&gt;PagoLineaModule -->
<g id="edge18" class="edge">
<title>ProgramaOikosService&#45;&gt;PagoLineaModule</title>
<path fill="none" stroke="#000000" d="M277,-122.1554C277,-144.3519 277,-179 277,-179 277,-179 1431.1354,-179 1431.1354,-179"/>
<polygon fill="#000000" stroke="#000000" points="1431.1354,-182.5001 1441.1354,-179 1431.1353,-175.5001 1431.1354,-182.5001"/>
</g>
<!-- ReciboService -->
<g id="node20" class="node">
<title>ReciboService</title>
<ellipse fill="#fdb462" stroke="#000000" cx="91" cy="-104" rx="67.1927" ry="18"/>
<text text-anchor="middle" x="91" y="-99.8" font-family="Times,serif" font-size="14.00" fill="#000000">ReciboService</text>
</g>
<!-- ReciboService&#45;&gt;PagoLineaModule -->
<g id="edge19" class="edge">
<title>ReciboService&#45;&gt;PagoLineaModule</title>
<path fill="none" stroke="#000000" d="M91,-122.3228C91,-145.6602 91,-183 91,-183 91,-183 1430.8651,-183 1430.8651,-183"/>
<polygon fill="#000000" stroke="#000000" points="1430.8652,-186.5001 1440.8651,-183 1430.8651,-179.5001 1430.8652,-186.5001"/>
</g>
</g>
</svg>
